<mxfile host="app.diagrams.net" modified="2023-08-22T11:43:23.427Z" agent="Mozilla/5.0 (Windows NT 10.0; Win64; x64) AppleWebKit/537.36 (KHTML, like Gecko) Chrome/115.0.0.0 Safari/537.36 Edg/115.0.1901.203" etag="ZxcO9wI59_53lIr4_7SB" version="21.6.8" type="github">
  <diagram name="第 1 页" id="NjZ1Nnrco1dMX0lIa8fq">
    <mxGraphModel dx="1426" dy="747" grid="1" gridSize="10" guides="1" tooltips="1" connect="1" arrows="1" fold="1" page="1" pageScale="1" pageWidth="827" pageHeight="1169" math="0" shadow="0">
      <root>
        <mxCell id="0" />
        <mxCell id="1" parent="0" />
        <mxCell id="DkVgxtGOpOE0h1ba1FcP-5" value="&lt;font style=&quot;font-size: 15px;&quot;&gt;省专公司&lt;/font&gt;" style="rounded=1;whiteSpace=wrap;html=1;" vertex="1" parent="1">
          <mxGeometry x="45" y="230" width="110" height="40" as="geometry" />
        </mxCell>
        <mxCell id="DkVgxtGOpOE0h1ba1FcP-6" value="" style="rounded=0;whiteSpace=wrap;html=1;" vertex="1" parent="1">
          <mxGeometry x="90" y="280" width="20" height="50" as="geometry" />
        </mxCell>
      </root>
    </mxGraphModel>
  </diagram>
</mxfile>
